<mxfile host="65bd71144e" modified="2021-02-07T06:59:35.808Z" agent="5.0 (Windows NT 10.0; Win64; x64) AppleWebKit/537.36 (KHTML, like Gecko) Code/1.53.0 Chrome/87.0.4280.141 Electron/11.2.1 Safari/537.36" version="13.10.0" etag="1sbh947IhywY2SiaWY_f" type="embed">
    <diagram id="TtGx1FBL4ot8CLrzhhp5" name="ページ1">
        <mxGraphModel dx="1112" dy="790" grid="1" gridSize="10" guides="1" tooltips="1" connect="1" arrows="1" fold="1" page="1" pageScale="1" pageWidth="827" pageHeight="1169" math="0" shadow="0">
            <root>
                <mxCell id="0"/>
                <mxCell id="1" parent="0"/>
                <mxCell id="5" value="" style="rounded=0;whiteSpace=wrap;html=1;" vertex="1" parent="1">
                    <mxGeometry x="117" y="140" width="280" height="610" as="geometry"/>
                </mxCell>
                <mxCell id="9" value="" style="rounded=0;whiteSpace=wrap;html=1;" vertex="1" parent="1">
                    <mxGeometry x="429.5" y="140" width="280" height="280" as="geometry"/>
                </mxCell>
                <mxCell id="10" value="" style="ellipse;whiteSpace=wrap;html=1;aspect=fixed;fillColor=#1ba1e2;strokeColor=#006EAF;fontColor=#ffffff;" vertex="1" parent="1">
                    <mxGeometry x="479.5" y="145" width="180" height="180" as="geometry"/>
                </mxCell>
                <mxCell id="11" value="" style="ellipse;whiteSpace=wrap;html=1;aspect=fixed;" vertex="1" parent="1">
                    <mxGeometry x="507" y="172.5" width="125" height="125" as="geometry"/>
                </mxCell>
                <mxCell id="12" value="2021/01/04 :&amp;nbsp; 😄" style="rounded=0;whiteSpace=wrap;html=1;" vertex="1" parent="1">
                    <mxGeometry x="117" y="270" width="280" height="60" as="geometry"/>
                </mxCell>
                <mxCell id="13" value="2021/01/03 :&amp;nbsp; 😄" style="rounded=0;whiteSpace=wrap;html=1;" vertex="1" parent="1">
                    <mxGeometry x="117" y="340" width="280" height="60" as="geometry"/>
                </mxCell>
                <mxCell id="14" value="2021/01/02 :&amp;nbsp; 😢" style="rounded=0;whiteSpace=wrap;html=1;" vertex="1" parent="1">
                    <mxGeometry x="117" y="410" width="280" height="60" as="geometry"/>
                </mxCell>
                <mxCell id="15" value="2020/12/31 :&amp;nbsp; 😄" style="rounded=0;whiteSpace=wrap;html=1;" vertex="1" parent="1">
                    <mxGeometry x="117" y="480" width="280" height="60" as="geometry"/>
                </mxCell>
                <mxCell id="16" value="" style="rounded=0;whiteSpace=wrap;html=1;" vertex="1" parent="1">
                    <mxGeometry x="117" y="160" width="280" height="90" as="geometry"/>
                </mxCell>
                <mxCell id="17" value="" style="rounded=0;whiteSpace=wrap;html=1;" vertex="1" parent="1">
                    <mxGeometry x="117" y="220" width="280" height="30" as="geometry"/>
                </mxCell>
                <mxCell id="20" value="喜怒哀楽アイコン" style="text;html=1;strokeColor=none;fillColor=none;align=center;verticalAlign=middle;whiteSpace=wrap;rounded=0;" vertex="1" parent="1">
                    <mxGeometry x="127" y="225" width="140" height="20" as="geometry"/>
                </mxCell>
                <mxCell id="21" value="登録" style="rounded=1;whiteSpace=wrap;html=1;" vertex="1" parent="1">
                    <mxGeometry x="327" y="225" width="50" height="20" as="geometry"/>
                </mxCell>
                <mxCell id="22" value="日付" style="rounded=1;whiteSpace=wrap;html=1;" vertex="1" parent="1">
                    <mxGeometry x="127" y="170" width="70" height="20" as="geometry"/>
                </mxCell>
                <mxCell id="23" value="メモ" style="rounded=1;whiteSpace=wrap;html=1;" vertex="1" parent="1">
                    <mxGeometry x="207" y="170" width="180" height="40" as="geometry"/>
                </mxCell>
                <mxCell id="24" value="この辺に内訳" style="rounded=0;whiteSpace=wrap;html=1;" vertex="1" parent="1">
                    <mxGeometry x="467" y="340" width="200" height="60" as="geometry"/>
                </mxCell>
                <mxCell id="28" value="2列構成&lt;br&gt;* 記録カラム: Twitterのイメージ&lt;br&gt;* 集計カラム: chart-vueで描画&lt;br&gt;&lt;br&gt;ブラウザ内のindexDBに記録していく" style="text;html=1;align=left;verticalAlign=middle;resizable=0;points=[];autosize=1;" vertex="1" parent="1">
                    <mxGeometry x="20" y="20" width="220" height="80" as="geometry"/>
                </mxCell>
            </root>
        </mxGraphModel>
    </diagram>
</mxfile>